<?xml version="1.0" encoding="utf-8"?>
<!-- Generator: Adobe Illustrator 24.0.1, SVG Export Plug-In . SVG Version: 6.00 Build 0)  -->
<svg version="1.1" id="Calque_1" xmlns="http://www.w3.org/2000/svg" xmlns:xlink="http://www.w3.org/1999/xlink" x="0px" y="0px"
	 viewBox="0 0 189 55" style="enable-background:new 0 0 189 55;" xml:space="preserve">
<style type="text/css">
	.st0{opacity:0.9;}
	.st1{fill:#FFFFFF;stroke:url(#SVGID_1_);stroke-miterlimit:10;}
	.st2{fill:#FFFFFF;stroke:url(#SVGID_2_);stroke-miterlimit:10;}
	.st3{fill:#FFFFFF;stroke:url(#SVGID_3_);stroke-miterlimit:10;}
	.st4{fill:#FFFFFF;stroke:url(#SVGID_4_);stroke-miterlimit:10;}
	.st5{fill:#FFFFFF;stroke:url(#SVGID_5_);stroke-miterlimit:10;}
	.st6{fill:#FFFFFF;stroke:url(#SVGID_6_);stroke-miterlimit:10;}
</style>
<g class="st0">
	<linearGradient id="SVGID_1_" gradientUnits="userSpaceOnUse" x1="6.3157" y1="10.8233" x2="22.8559" y2="10.8233">
		<stop  offset="0" style="stop-color:#FFFFFF"/>
		<stop  offset="1" style="stop-color:#000000"/>
	</linearGradient>
	<path class="st1" d="M9.3,16.9l3.6,1.8c0.7,0.3,1.4,0.4,2.1,0.4c0.7,0,1.4-0.2,2.1-0.6l3.4-2.2c0.6-0.4,1.1-1,1.4-1.6
		c0.3-0.7,0.5-1.4,0.5-2.1l-0.2-4.1c-0.1-0.7-0.3-1.4-0.7-2c-0.4-0.6-0.9-1.1-1.5-1.5L16.3,3c-0.7-0.3-1.4-0.4-2.1-0.4
		c-0.7,0-1.4,0.2-2.1,0.6L8.7,5.4c-0.6,0.4-1.1,1-1.4,1.6C7,7.7,6.8,8.4,6.8,9.2L7,13.3c0.1,0.7,0.3,1.4,0.7,2.1
		C8.1,16,8.7,16.5,9.3,16.9z"/>
	<linearGradient id="SVGID_2_" gradientUnits="userSpaceOnUse" x1="17.444" y1="28.177" x2="33.9844" y2="28.177">
		<stop  offset="0" style="stop-color:#FFFFFF"/>
		<stop  offset="1" style="stop-color:#000000"/>
	</linearGradient>
	<path class="st2" d="M31,22.2l-3.6-1.9c-0.7-0.3-1.4-0.4-2.1-0.4c-0.7,0-1.4,0.2-2,0.6l-3.4,2.2c-0.6,0.4-1.1,1-1.4,1.7
		c-0.3,0.7-0.5,1.4-0.5,2.1l0.2,4.1c0.1,0.7,0.3,1.4,0.7,2c0.4,0.6,0.9,1.1,1.5,1.5L24,36c0.7,0.3,1.4,0.4,2.1,0.4
		c0.7,0,1.4-0.2,2-0.6l3.4-2.2c0.6-0.4,1.1-1,1.4-1.7c0.3-0.7,0.5-1.4,0.5-2.1l-0.2-4.1c-0.1-0.7-0.3-1.4-0.7-2
		C32.2,23.1,31.6,22.6,31,22.2z"/>
	<linearGradient id="SVGID_3_" gradientUnits="userSpaceOnUse" x1="28.5816" y1="45.5253" x2="45.1039" y2="45.5253">
		<stop  offset="0" style="stop-color:#FFFFFF"/>
		<stop  offset="1" style="stop-color:#000000"/>
	</linearGradient>
	<path class="st3" d="M42.1,39.5l-3.6-1.8c-0.7-0.3-1.4-0.4-2.1-0.4c-0.7,0-1.4,0.2-2.1,0.6L31,40.2c-0.6,0.4-1.1,1-1.4,1.7
		c-0.3,0.7-0.5,1.4-0.5,2.1l0.2,4.1c0.1,0.7,0.3,1.4,0.7,2c0.4,0.6,0.9,1.1,1.5,1.5l3.6,1.8c0.7,0.3,1.4,0.4,2.1,0.4
		c0.7,0,1.4-0.2,2.1-0.6l3.4-2.2c0.6-0.4,1.1-1,1.4-1.7c0.3-0.7,0.5-1.4,0.5-2.1l-0.2-4c-0.1-0.7-0.3-1.4-0.7-2
		C43.3,40.4,42.8,39.9,42.1,39.5z"/>
	<linearGradient id="SVGID_4_" gradientUnits="userSpaceOnUse" x1="-0.5" y1="19.4842" x2="40.8902" y2="19.4842">
		<stop  offset="0" style="stop-color:#FFFFFF"/>
		<stop  offset="1" style="stop-color:#FFFFFF"/>
	</linearGradient>
	<path class="st4" d="M15.6,29.3l-0.2-3.2c0-0.7,0.2-1.5,0.5-2.1c0.3-0.7,0.8-1.2,1.4-1.7L24,18c0.6-0.4,1.3-0.6,2-0.6
		c0.7,0,1.4,0.1,2.1,0.4l2.8,1.5c0.7,0.3,1.4,0.4,2.1,0.4c0.7,0,1.4-0.2,2.1-0.6l3.4-2.3c0.6-0.4,1.1-1,1.4-1.6
		c0.3-0.7,0.5-1.4,0.5-2.1l-0.2-4.1c-0.1-0.7-0.3-1.4-0.7-2c-0.4-0.6-0.9-1.1-1.6-1.5l-3.6-1.9c-0.7-0.3-1.4-0.4-2.1-0.4
		c-0.7,0-1.4,0.2-2.1,0.6l-3.5,2.2c-0.6,0.4-1.1,1-1.4,1.7C25,8.2,24.8,9,24.8,9.7l0.2,3.2c0,0.7-0.2,1.5-0.5,2.1
		c-0.3,0.7-0.8,1.2-1.4,1.7L16.4,21c-0.6,0.4-1.3,0.6-2.1,0.6c-0.7,0-1.4-0.1-2.1-0.4l-2.8-1.4c-0.7-0.3-1.4-0.4-2.1-0.4
		c-0.7,0-1.4,0.2-2.1,0.6l-3.4,2.2c-0.6,0.4-1.1,1-1.4,1.6C0.2,24.5,0,25.3,0,26l0.2,4.1c0.1,0.7,0.3,1.4,0.7,2
		c0.4,0.6,0.9,1.1,1.6,1.5l3.6,1.8c0.7,0.3,1.4,0.4,2.1,0.4c0.7,0,1.4-0.2,2.1-0.6l3.4-2.2c0.6-0.4,1.1-1,1.4-1.6
		C15.4,30.8,15.6,30.1,15.6,29.3z"/>
	<linearGradient id="SVGID_5_" gradientUnits="userSpaceOnUse" x1="10.6104" y1="36.9123" x2="51.9286" y2="36.9123">
		<stop  offset="0" style="stop-color:#FFFFFF"/>
		<stop  offset="1" style="stop-color:#FFFFFF"/>
	</linearGradient>
	<path class="st5" d="M51.2,26.2c-0.1-0.7-0.3-1.4-0.7-2c-0.4-0.6-0.9-1.1-1.5-1.5l-3.6-1.8c-0.7-0.3-1.4-0.4-2.1-0.4
		c-0.7,0-1.4,0.2-2.1,0.6l-3.4,2.2c-0.6,0.4-1.1,1-1.4,1.7c-0.3,0.7-0.5,1.4-0.5,2.1l0.2,3.2c0,0.7-0.2,1.5-0.5,2.1
		c-0.3,0.7-0.8,1.2-1.4,1.7l-6.6,4.4C27,38.8,26.2,39,25.5,39c-0.7,0-1.4-0.1-2.1-0.4l-2.8-1.5c-0.7-0.3-1.4-0.4-2.1-0.4
		c-0.7,0-1.4,0.2-2,0.6L13,39.7c-0.6,0.4-1.1,1-1.4,1.7c-0.3,0.7-0.5,1.4-0.5,2.1l0.2,4.1c0.1,0.7,0.3,1.4,0.7,2
		c0.4,0.6,0.9,1.1,1.5,1.5l3.6,1.9c0.7,0.3,1.4,0.4,2.1,0.4c0.7,0,1.4-0.2,2-0.6l3.4-2.2c0.6-0.4,1.1-1,1.4-1.7
		c0.3-0.7,0.5-1.4,0.5-2.1l-0.2-3.2c0-0.7,0.2-1.5,0.5-2.1c0.3-0.7,0.8-1.2,1.4-1.6l6.6-4.4c0.6-0.4,1.3-0.6,2.1-0.6
		c0.7,0,1.4,0.1,2.1,0.4l2.8,1.4c0.7,0.3,1.4,0.4,2.1,0.4c0.7,0,1.4-0.2,2.1-0.6l3.4-2.2c0.6-0.4,1.1-1,1.4-1.7
		c0.3-0.7,0.5-1.4,0.5-2.1L51.2,26.2z"/>
	<linearGradient id="SVGID_6_" gradientUnits="userSpaceOnUse" x1="63.1549" y1="25.2677" x2="187.773" y2="25.2677">
		<stop  offset="0" style="stop-color:#FFFFFF"/>
		<stop  offset="1" style="stop-color:#FFFFFF"/>
	</linearGradient>
	<path class="st6" d="M63.7,25.8c0,9,6.7,16.7,17.7,16.7c4.9,0,8.1-1.5,11.2-3.7l-2.4-4.5c-2.3,1.7-5.3,3-8.7,3
		c-7.4,0-11.7-5.1-11.7-11.4S74,14.4,81.4,14.4c3.5,0,6.5,1.3,8.7,3l2.4-4.4c-3-2.3-6.2-3.8-11.2-3.8C70.4,9.1,63.7,16.8,63.7,25.8z
		 M102.6,42V18.6H97V42H102.6z M96.1,11.6c0,2,1.6,3.6,3.7,3.6c2.1,0,3.8-1.5,3.8-3.6c0-2-1.7-3.6-3.8-3.6
		C97.7,8,96.1,9.6,96.1,11.6z M114.8,18.6h-5.6V42h5.7V31.2c0-6.5,3.5-7.6,5.6-7.6c0.7,0,1.8,0.1,2.7,0.5v-5.6
		c-0.7-0.2-1.2-0.3-1.9-0.3c-2.5,0-5.6,1.7-6.4,5.7V18.6z M124.9,30.4c0,6.8,5,12.1,13.2,12.1c2.3,0,5.4-0.5,9-3.2l-2.6-4
		c-2.4,1.9-5.2,2.1-6.1,2.1c-4.5,0-7.7-3-7.7-7.1c0-4.2,3.2-7.1,7.7-7.1c0.9,0,3.7,0.1,6.1,2.1l2.6-4.1c-3.6-2.6-6.8-3.1-9-3.1
		C129.8,18.1,124.9,23.5,124.9,30.4z M157.2,42V8.5h-5.7V42H157.2z M183,34.8c-2,1.8-4.2,2.9-7.1,2.9c-5,0-8.1-2.9-8.1-6.6h19.4
		c0-9-6-13-12.3-13c-7.4,0-12.8,5.5-12.8,12.3c0,6.7,5,12.1,13.5,12.1c3.6,0,7.5-1,10.6-4.5L183,34.8z M175,22.6
		c2.4,0,5.6,1,6.5,4.6h-13.3C169.3,23.6,172.5,22.6,175,22.6z"/>
</g>
</svg>
